<mxfile host="65bd71144e">
    <diagram id="_kdANtaBpjSvmqyRQMBH" name="Page-1">
        <mxGraphModel dx="2474" dy="2913" grid="1" gridSize="10" guides="1" tooltips="1" connect="1" arrows="1" fold="1" page="1" pageScale="1" pageWidth="827" pageHeight="1169" math="0" shadow="0">
            <root>
                <mxCell id="0"/>
                <mxCell id="1" parent="0"/>
                <mxCell id="t-yqxCgvgsPSMpnyVoJh-1" value="" style="group" parent="1" vertex="1" connectable="0">
                    <mxGeometry x="-1610" y="-1440" width="1320.5" height="2035" as="geometry"/>
                </mxCell>
                <mxCell id="c7NxjLTY1limqeC1YHB--1" value="" style="strokeWidth=1;shadow=0;dashed=0;align=center;html=1;shape=mxgraph.mockup.containers.browserWindow;rSize=0;strokeColor=#000000;strokeColor2=#008cff;strokeColor3=#c4c4c4;mainText=,;recursiveResize=0;fillColor=none;fontSize=19;" parent="t-yqxCgvgsPSMpnyVoJh-1" vertex="1">
                    <mxGeometry x="10" y="180" width="1320.5" height="2033" as="geometry"/>
                </mxCell>
                <mxCell id="c7NxjLTY1limqeC1YHB--2" value="Page 1" style="strokeWidth=1;shadow=0;dashed=0;align=center;html=1;shape=mxgraph.mockup.containers.anchor;fontSize=17;fontColor=#666666;align=left;" parent="c7NxjLTY1limqeC1YHB--1" vertex="1">
                    <mxGeometry x="60" y="12" width="110" height="26" as="geometry"/>
                </mxCell>
                <mxCell id="c7NxjLTY1limqeC1YHB--3" value="aviscivitavecchia.it" style="strokeWidth=1;shadow=0;dashed=0;align=center;html=1;shape=mxgraph.mockup.containers.anchor;rSize=0;fontSize=17;fontColor=#666666;align=left;" parent="c7NxjLTY1limqeC1YHB--1" vertex="1">
                    <mxGeometry x="130" y="60" width="250" height="26" as="geometry"/>
                </mxCell>
                <mxCell id="WHxMf-mwWKt1v3oU930C-40" value="Text" style="text;html=1;strokeColor=none;fillColor=none;align=center;verticalAlign=middle;whiteSpace=wrap;rounded=0;labelBackgroundColor=none;fontFamily=monserat;fontSource=https%3A%2F%2Ffonts.googleapis.com%2Fcss%3Ffamily%3Dmonserat;fontSize=29;fontColor=#FFFFFF;" parent="c7NxjLTY1limqeC1YHB--1" vertex="1">
                    <mxGeometry x="550" y="210" width="60" height="30" as="geometry"/>
                </mxCell>
                <mxCell id="WHxMf-mwWKt1v3oU930C-44" value="" style="line;strokeWidth=1;html=1;labelBackgroundColor=none;fontFamily=monserat;fontSource=https%3A%2F%2Ffonts.googleapis.com%2Fcss%3Ffamily%3Dmonserat;fontSize=25;fontColor=#000000;fillColor=#1717FF;gradientColor=none;opacity=30;" parent="c7NxjLTY1limqeC1YHB--1" vertex="1">
                    <mxGeometry y="181" width="1210" height="10" as="geometry"/>
                </mxCell>
                <mxCell id="bn6GsZn3lirkr-gELbS7-1" value="" style="line;strokeWidth=1;direction=south;html=1;opacity=30;" parent="c7NxjLTY1limqeC1YHB--1" vertex="1">
                    <mxGeometry x="997" y="186" width="10" height="1844" as="geometry"/>
                </mxCell>
                <mxCell id="bn6GsZn3lirkr-gELbS7-2" value="&lt;font face=&quot;monserat&quot; data-font-src=&quot;https://fonts.googleapis.com/css?family=monserat&quot; style=&quot;font-size: 28px&quot;&gt;Informazioni sulla donazione&amp;nbsp;&lt;/font&gt;" style="text;html=1;strokeColor=none;fillColor=none;align=center;verticalAlign=middle;whiteSpace=wrap;rounded=0;" parent="c7NxjLTY1limqeC1YHB--1" vertex="1">
                    <mxGeometry x="129" y="134.5" width="340" height="31" as="geometry"/>
                </mxCell>
                <mxCell id="bn6GsZn3lirkr-gELbS7-4" value="&lt;font style=&quot;font-size: 28px&quot;&gt;Dove siamo&amp;nbsp;&amp;nbsp;&lt;/font&gt;" style="text;html=1;strokeColor=none;fillColor=none;align=center;verticalAlign=middle;whiteSpace=wrap;rounded=0;fontFamily=monserat;fontSource=https%3A%2F%2Ffonts.googleapis.com%2Fcss%3Ffamily%3Dmonserat;" parent="c7NxjLTY1limqeC1YHB--1" vertex="1">
                    <mxGeometry x="374" y="135.5" width="562" height="30" as="geometry"/>
                </mxCell>
                <mxCell id="bn6GsZn3lirkr-gELbS7-5" value="" style="shape=image;verticalLabelPosition=bottom;labelBackgroundColor=default;verticalAlign=top;aspect=fixed;imageAspect=0;image=data:image/png,iVBORw0KGgoAAAANSUhEUgAAAOEAAADhCAMAAAAJbSJIAAAAwFBMVEX///8AfcbtHCQAdsMAesUAdMPsAAAAeMS50eoAcMEAcsIAdcMAb8GkxOSDsdvtFyDR4vHE2e30+fzsAAnL3vDA1+ydwOLk7vdUmNFkoNTtERvY5vPsABGryeZ/rtrx9/typ9eQuN7yb3L1nJ4yicv+9vbo8flJk8/4ubr83t84isv0kpT5w8T71tfzfX/2p6nuLzT97+/zgILziYvvTlLxXmEAY73uOj/wVFj2o6X3sbP6zM3uJSzvQUb5wcH85OQEj34oAAAMnUlEQVR4nO1dB3PbOhJmFUWKKrZk9WZbtmM5duKX5C4v5eX//6tDoQpJkNzlgrqZO3yTiceyWJb4sB2gZRkYGBgYGBgYGBgYGBgYGBgYGBgYGBgYGBgYGBgYGBj8z2CyWAwG7N8BoxSuTrhJ0B6djl11izC+rrrwqNtbr2/bj41KxxFHfg4dAeWHHT+esKOe39l/69gtRNwuvepiG/lu4HlBJ9x1mxWw3bFxCG/YUe9f2H/TskO9aclFN9M4sD0/jMLI9WzXLX8aROw9nIDumh30sHxgI1j+bKJimo78wHaD9dVks1l0nyLPDmfNCbiIcAJ6e36U82JZV2H5NzuFA9OOGRPGp1vYu7a7b0zCbYCT0N+wg7622H9u1bMooukotj07pV/WkR2UkZqCDXIIIz4J71r3lnVbJaEdq2l6zcmd+VOvY/sN6Zvq+0xBTMKXVgv0aNyV8pKMNVwbX62nT7vd7mktbM+TZ0ebRiTEqRnPZod8aA3ZEPaq2a2m6WNsBz32c+17AbNAQRDyrz2G8lPtaPsoCUM2e55b/WFCtSooteltID/vBd5Tuz3escHjY81GttOEhDvUGPJbeZj3l0yRdiHs7qhoysZWmIZeEGzPfh/5djRSfJ2IUYXCT0Oou69zp8Vs4Q5ygIqmmzCZnwcJt578Gvt8nP86FVPUELqMXF9azvLNsgYwFRzmlQc7MhqcSXjt2dK/29lSYq2YoIYwvrKsjy3Haf3hDx72TPI0vfHFbJbzcDze+rY/Tp52qZ9XD2uMtXe3zBtlAs6/siOBvqzins8kZI5px7ODZPY1IeE1TpGyI37P2RB+YLYM6q3njT7XKItEwv2MiZWQlPnHgXbndIyJKsIBN/UOk9BCuHp5mjLDJx1WNg9v2Y8ZCy3EH3xb/K4VGDXjMnP8ygWcMz1jgdntPeWuaicaJZGQ6QKfTXAeAfg3mgXEWXt2gNPnQ/gTFY/ktenak6Y9kZA9LfGTkTbULCDK2sds6rwtmYAO82cwzmyepovE8B0knHl8oJlO0D4NBwhTwR3un5yjzvybJdxkKBQ0ZUfzkV3HsXBE27H/r2tufkRyRCdQ1p59/xfnqLP8mz1vTMSVp+mEhYc7pnIWCxkjLhaL61UkrJFWTBC3GTFV8EVw1Gm9CoUPh8Lod1kcsU+ZkW4kwxatQFh7PkGeBUcd4ZPeYhwFBU15SO+dJZ82M/Z7R3d0iGGaz573vwVHnf4vC+vNKnxT6zZmZ7VvB+xPj+1ZzEyirT38HcPVIY+BfiRDOP9uVSdoMoershNXNvM2giiMwpA5bl681S0fwmYLrfAwdBIJ30SQjoGKpgxdO3SZy2Z7XieeLfQLiEgDh0dTyFUpzyLi3Fk7LiDgYDzb27undbuR/Azc2nMX66BmmL1nxmKFTJK7DSftlRjB9QxXM9/nRwl/gHJQKXjNJXuLAdeG3MH6eRxCZ/gBHP2eEDZfXcoCE9tbR0txlBA5hmpt2izg9xi1eX7USUm4xo7h5Wm6AQ+huLfP/bSEKJdGILo0TeHBDw/sz4fQGX7C61K7kTRhKcB3KFJDv86GsJY9vDxN4WPAjX1qCOv4NBzxZWkKf/R8CM9nIfO8f2NOcMRlaQonGU9dfEwNIaOpVcNcCN/2cgCnILykTJFC61kkdbG4JE0XYFPBZ+FrZgiFMoWrqiMuSdMZlGIi6rnLDKEMEFHVAHmyy9H0ETyEPE/7nh1CmcbAVXQEIt2JtEIgAgP27ftlTkJBU7yuuRxNwU9f5MhS1j6xFzxTA/f7DrgYTbtgJeFbqbDpjKb/WMiijsClaAp/5rytJKdnxCB+5ifCNQDYF6MpvBjDU+wPqiFkg8jifOsR2Wl0KZqCu/SEr/xjqJTQGT7wh4WditrLEioA+wvsRM9k/ZkDRHXG6iE9G/31TwVm4MkTXiuN4TlPrSkuM2xfgKbwsEf08HwqIKkjvVN0Z2rYPE3hCRafl02+F5CU69M5n4pIhdo8Ta/huoEnSQs0aTIVf4sz2igRG6cpvBgjSPqhTEJn+R0vYtRAeSIF+K0ITfpWTFKO4R0/5wYjYtM0RbReiJJfP++TptB6EyJ6CBEbpilcLQj3408pSU8iPiI81LBRmiIaLUWzbomtOIr4Fz8xoiGgWZoiStOiR0npdWdF5MtKUG0rDQqISXKKdruqaShFfOHnXoFHsUmaYsopfBoWu2xpET+Jk0PtUIM0RVh72ViXzZMWiviRnx7uvzUmIaL1QlalFRmaAhH/sG9voJaoOZrC5WOKhjftQhSNgMjbWCugiI3RFNVoKdaufIYoGoGlcG7A1rYhCRHNhOw58yOqreGJpz8teO9DQ74pKoMrEhhAVXrGU6CyaWbpD7LVjgcWuXpF6SDykB9crmlEQlS6QeQR/8FI2Hf4RYASyuUkmoFr6BbqDuCVng8in4nANptGaIrSM9IcvkDNoQBfJwSmqadfQGSlSIS/X1ASCppugJ5vqJ+myP4Xsd6jIsDP0ZQvzgeevwGaouRLJAS7NImEfCJCJ4N2miL6EGtLyFulwEVF7doUW82sJSEPoqDF12CtWUJs44TQNH+hNI1YhYGY73oFRLeGiEIfzlrIMQRLqJmm8GpMAqHrigprRRJyvw3cIuDppSm+4o72S5NIHz7htWpTfCOhSNOUFi0UEvJAH57N07osHd8XIsoy553PEAn5pUAL2AW00hQ7C+1EEaBUjVj8jEl2adw9Abv7DIdQpqiJuLy3MCV0rTTF5NgOkIvG5wiaipIw5lLeVpuEuMApgch5I2iKSmNIBLoERK64TyD8NkSmhi8VAgdPEr4umtawFfZhtdkdeBB5uyJyPmjbAgO/NEJAdE1UFxAPQyjKM8hL6KJprWl4eMLAOL8/519GbuUjK3gagO90lZCLXEAFNtmriO7f10RTeE93BnIXIJBNlEl9eFfnAa4WCfHrdw4Iha57qRZxLnoxa+hsPTRFrzI7Qbr/d1VBVH/Jc1DI1d0CemiK3RLxXEK5G863chH7Qx5UgGtrKUQ6JKzhlB7hy0rfXRlRl7/ECNZxfvXQFL7yQIVIbvfw0irUqK3v8jIUk0RDPY/miFAubn111Exdyi4Fa9GpORc0hFCrGoFFSsSkJH3fGmbHsb9svT3Ii+DX6iXQsKUQdll5/h6e5A4kD39/bi1PGdT5stX/8i6vsa0/EzTsuINOs+Vw2oHk+f7bvCUx/PryM/l0YVMeIt3o1/RKU/D3pzjn4c/r6+vz++kCt7UZKs9NpildPgYv3K0KNgRe0ATUQFMNQyhkdKNpd5GS8vGmx2NIgkchQDb6RFV6Biakb0+3vV5vvZ3ubfZbzK1lnSzQOag0rZfCKIYXMHiBbAoWfit6aVD2jESa6pbwHK40lVRdRqRpkxImmz/VD88kfNpe7A1KePApr4nalEpTfZomi2MTZY3AMAUiTTVZizxOawnRrx3IgEhTeDEIidMez9SZQKSpDq9NCf90Darv61e+56MMhDRNKc7LfzV2kEiBRlOqy1GEVLM28Ro0mhJj/MKbSi1fqlFkTiGmSIgrB4GRXneO2upTgeL3fECgR6IsMptZEseQtok3lUGgW6Lqs5CiTan2WIksrTALuyDnQ4HqNiqRc7SI56PRlOo2qm4op95rlmGPKHlrUjWwdUvI/eTi8hr78aRA06b6J6IiBUj0f2k0JSeFs1BVG6i+E0mb0oozCqiSR5itwVUoeGsSELpNorKcQswq0miq2XNTl8RALw4qQcHLvYDoaQ0w1GVN6mOk0VRvLqMgr0KMtQu2/Iai6iV+GBTVbamVSuIr1zQqm6LaO9U9JNLUwu0iU4bCwjQxXUOkKdmtOqK4uYDqHqpeoIDBlSaTUdK8THQPqTS1VppGsfgK4E1D1aDSVLz4hA63ZLsAatar6AUKCBE1ELV0f3yivSDTVL6hloZy9xH9PoHMyck0taxB3d6lA8oX8GIXcmZBpynzHnckJlVtrE70K/S856NHYWrVGmxisK2DpgwDu7bdqnzncu2W6wS63vNxG9Z81H7lPKEJqO91NJttWEfjhNUJMeTrobPQRFOOCX9JFhI+YJsAarpG5+toJusYZzqiLeS06N2T09D81qTuLoJPyBC2uxMxXaP9PR+LW/5eMMCVOzZwoRk1ddnACxQm46fYL5fS8z04efa+S0HczJbfo/E0iHxXsUmnF7iRP8O0Dy7aNGha7aXAZtRdT203DH2/47qdju9HYeTtt90mdjz6b2IzGd20V6t2+2Y0mJCStAYGBgYGBgYGBgYGBgYGBgYGBgYGBgYGBgYGBgYGBv+v+A/hfuxw0yjoawAAAABJRU5ErkJggg==;" parent="c7NxjLTY1limqeC1YHB--1" vertex="1">
                    <mxGeometry x="20" y="120" width="61" height="61" as="geometry"/>
                </mxCell>
                <mxCell id="bn6GsZn3lirkr-gELbS7-6" value="" style="line;strokeWidth=1;direction=south;html=1;fontFamily=monserat;fontSource=https%3A%2F%2Ffonts.googleapis.com%2Fcss%3Ffamily%3Dmonserat;" parent="c7NxjLTY1limqeC1YHB--1" vertex="1">
                    <mxGeometry x="100" y="117.37" width="10" height="60" as="geometry"/>
                </mxCell>
                <mxCell id="bn6GsZn3lirkr-gELbS7-9" value="&lt;font style=&quot;font-size: 28px&quot;&gt;Alternanza scuola-lavoro&lt;/font&gt;" style="text;html=1;strokeColor=none;fillColor=none;align=center;verticalAlign=middle;whiteSpace=wrap;rounded=0;fontFamily=monserat;fontSource=https%3A%2F%2Ffonts.googleapis.com%2Fcss%3Ffamily%3Dmonserat;fontSize=17;" parent="c7NxjLTY1limqeC1YHB--1" vertex="1">
                    <mxGeometry x="870.5" y="132.37" width="325" height="30" as="geometry"/>
                </mxCell>
                <mxCell id="bn6GsZn3lirkr-gELbS7-13" value="&lt;h1&gt;&lt;font color=&quot;#2676ff&quot; style=&quot;font-size: 37px&quot;&gt;Prenota ora il tuo prelievo&lt;/font&gt;&amp;nbsp;&lt;/h1&gt;&lt;p&gt;&lt;font face=&quot;Comic Sans MS&quot;&gt;&lt;font style=&quot;font-size: 30px&quot;&gt;Donare è un gesto semplice che può salvare molte vite, prenota ora il tuo prelievo cliccando il bottone sottostante, compila il modulo e ti manderemo un email di conferma con tutte le informazioni&lt;/font&gt;&lt;font style=&quot;font-size: 23px&quot;&gt;&amp;nbsp;&lt;/font&gt;&lt;/font&gt;&lt;/p&gt;" style="text;html=1;strokeColor=none;fillColor=none;spacing=5;spacingTop=-20;whiteSpace=wrap;overflow=hidden;rounded=0;fontFamily=monserat;fontSource=https%3A%2F%2Ffonts.googleapis.com%2Fcss%3Ffamily%3Dmonserat;fontSize=17;align=center;" parent="c7NxjLTY1limqeC1YHB--1" vertex="1">
                    <mxGeometry x="14" y="226" width="986" height="370" as="geometry"/>
                </mxCell>
                <mxCell id="bn6GsZn3lirkr-gELbS7-15" value="&lt;font style=&quot;font-size: 17px&quot;&gt;Prenota Ora&lt;/font&gt;" style="rounded=1;fillColor=#2676FF;strokeColor=none;html=1;fontColor=#ffffff;align=center;verticalAlign=middle;fontStyle=0;fontSize=12;sketch=0;fontFamily=monserat;fontSource=https%3A%2F%2Ffonts.googleapis.com%2Fcss%3Ffamily%3Dmonserat;" parent="c7NxjLTY1limqeC1YHB--1" vertex="1">
                    <mxGeometry x="371.47" y="459" width="239.06" height="60" as="geometry"/>
                </mxCell>
                <mxCell id="bn6GsZn3lirkr-gELbS7-17" value="" style="line;strokeWidth=1;html=1;fontFamily=Comic Sans MS;fontSize=17;fontColor=#2676FF;fillColor=#4099FF;opacity=30;" parent="c7NxjLTY1limqeC1YHB--1" vertex="1">
                    <mxGeometry x="30" y="482" width="950" height="210" as="geometry"/>
                </mxCell>
                <mxCell id="bn6GsZn3lirkr-gELbS7-22" value="&lt;h1&gt;&lt;font style=&quot;font-size: 37px&quot; color=&quot;#2676ff&quot;&gt;Informazioni Sulla Donazione&lt;/font&gt;&lt;/h1&gt;&lt;h1&gt;&lt;font style=&quot;font-size: 37px&quot; color=&quot;#2676ff&quot;&gt;&amp;nbsp;&lt;/font&gt;&lt;font style=&quot;font-family: &amp;#34;comic sans ms&amp;#34; ; font-weight: normal ; font-size: 23px&quot;&gt;&amp;nbsp;&lt;/font&gt;&lt;br&gt;&lt;/h1&gt;" style="text;html=1;strokeColor=none;fillColor=none;spacing=5;spacingTop=-20;whiteSpace=wrap;overflow=hidden;rounded=0;fontFamily=monserat;fontSource=https%3A%2F%2Ffonts.googleapis.com%2Fcss%3Ffamily%3Dmonserat;fontSize=17;align=center;" parent="c7NxjLTY1limqeC1YHB--1" vertex="1">
                    <mxGeometry x="14" y="610" width="986" height="370" as="geometry"/>
                </mxCell>
                <mxCell id="bn6GsZn3lirkr-gELbS7-23" value="&lt;font color=&quot;#ffffff&quot;&gt;Età Consigliata&amp;nbsp;&lt;/font&gt;" style="ellipse;whiteSpace=wrap;html=1;aspect=fixed;labelBackgroundColor=none;fontFamily=monserat;fontSource=https%3A%2F%2Ffonts.googleapis.com%2Fcss%3Ffamily%3Dmonserat;fontSize=17;fontColor=#000000;strokeColor=#2676FF;strokeWidth=1;fillColor=#2676FF;opacity=90;" parent="c7NxjLTY1limqeC1YHB--1" vertex="1">
                    <mxGeometry x="21" y="720" width="130" height="130" as="geometry"/>
                </mxCell>
                <mxCell id="bn6GsZn3lirkr-gELbS7-25" value="&lt;font color=&quot;#ffffff&quot;&gt;Peso Consigliato&amp;nbsp;&lt;/font&gt;" style="ellipse;whiteSpace=wrap;html=1;aspect=fixed;labelBackgroundColor=none;fontFamily=monserat;fontSource=https%3A%2F%2Ffonts.googleapis.com%2Fcss%3Ffamily%3Dmonserat;fontSize=17;fontColor=#000000;strokeColor=#2676FF;strokeWidth=1;fillColor=#2676FF;opacity=90;" parent="c7NxjLTY1limqeC1YHB--1" vertex="1">
                    <mxGeometry x="690" y="720" width="130" height="130" as="geometry"/>
                </mxCell>
                <mxCell id="bn6GsZn3lirkr-gELbS7-24" value="&lt;font color=&quot;#ffffff&quot;&gt;Stile Di Vita&lt;/font&gt;" style="ellipse;whiteSpace=wrap;html=1;aspect=fixed;labelBackgroundColor=none;fontFamily=monserat;fontSource=https%3A%2F%2Ffonts.googleapis.com%2Fcss%3Ffamily%3Dmonserat;fontSize=17;fontColor=#000000;strokeColor=#2676FF;strokeWidth=1;fillColor=#2676FF;opacity=90;" parent="c7NxjLTY1limqeC1YHB--1" vertex="1">
                    <mxGeometry x="360" y="720" width="130" height="130" as="geometry"/>
                </mxCell>
                <mxCell id="bn6GsZn3lirkr-gELbS7-28" value="&lt;ul&gt;&lt;li&gt;Si consiglia un età compresa tra i 18 e i 60.&lt;/li&gt;&lt;/ul&gt;" style="text;html=1;strokeColor=none;fillColor=none;align=center;verticalAlign=middle;whiteSpace=wrap;rounded=0;labelBackgroundColor=none;fontFamily=monserat;fontSource=https%3A%2F%2Ffonts.googleapis.com%2Fcss%3Ffamily%3Dmonserat;fontSize=17;fontColor=#000000;opacity=30;" parent="c7NxjLTY1limqeC1YHB--1" vertex="1">
                    <mxGeometry x="151" y="775" width="166" height="20" as="geometry"/>
                </mxCell>
                <mxCell id="bn6GsZn3lirkr-gELbS7-30" value="&lt;ul&gt;&lt;li&gt;Si consiglia di non avere un peso inferiore ai 50kg&lt;/li&gt;&lt;/ul&gt;" style="text;html=1;strokeColor=none;fillColor=none;align=center;verticalAlign=middle;whiteSpace=wrap;rounded=0;labelBackgroundColor=none;fontFamily=monserat;fontSource=https%3A%2F%2Ffonts.googleapis.com%2Fcss%3Ffamily%3Dmonserat;fontSize=17;fontColor=#000000;opacity=30;" parent="c7NxjLTY1limqeC1YHB--1" vertex="1">
                    <mxGeometry x="799" y="770" width="197" height="30" as="geometry"/>
                </mxCell>
                <mxCell id="bn6GsZn3lirkr-gELbS7-31" value="&lt;ul&gt;&lt;li&gt;Si deve avere uno stile di vita sano, e l'idoneità deve essere confermata dal medico curante.&lt;/li&gt;&lt;/ul&gt;" style="text;html=1;strokeColor=none;fillColor=none;align=center;verticalAlign=middle;whiteSpace=wrap;rounded=0;labelBackgroundColor=none;fontFamily=monserat;fontSource=https%3A%2F%2Ffonts.googleapis.com%2Fcss%3Ffamily%3Dmonserat;fontSize=17;fontColor=#000000;opacity=30;" parent="c7NxjLTY1limqeC1YHB--1" vertex="1">
                    <mxGeometry x="475" y="780" width="185" height="30" as="geometry"/>
                </mxCell>
                <mxCell id="bn6GsZn3lirkr-gELbS7-32" value="" style="line;strokeWidth=1;html=1;fontFamily=Comic Sans MS;fontSize=17;fontColor=#2676FF;fillColor=#4099FF;opacity=30;" parent="c7NxjLTY1limqeC1YHB--1" vertex="1">
                    <mxGeometry x="32" y="840" width="950" height="210" as="geometry"/>
                </mxCell>
                <mxCell id="bn6GsZn3lirkr-gELbS7-35" value="" style="line;strokeWidth=1;direction=south;html=1;fontFamily=monserat;fontSource=https%3A%2F%2Ffonts.googleapis.com%2Fcss%3Ffamily%3Dmonserat;opacity=30;" parent="c7NxjLTY1limqeC1YHB--1" vertex="1">
                    <mxGeometry x="480" y="117.37" width="10" height="60" as="geometry"/>
                </mxCell>
                <mxCell id="bn6GsZn3lirkr-gELbS7-34" value="" style="line;strokeWidth=1;direction=south;html=1;fontFamily=monserat;fontSource=https%3A%2F%2Ffonts.googleapis.com%2Fcss%3Ffamily%3Dmonserat;opacity=30;" parent="c7NxjLTY1limqeC1YHB--1" vertex="1">
                    <mxGeometry x="811" y="117.37" width="10" height="60" as="geometry"/>
                </mxCell>
                <mxCell id="bn6GsZn3lirkr-gELbS7-37" value="&lt;h1&gt;&lt;font color=&quot;#2676ff&quot;&gt;&lt;span style=&quot;font-size: 37px&quot;&gt;Dove Siamo&amp;nbsp;&lt;/span&gt;&lt;/font&gt;&lt;/h1&gt;" style="text;html=1;strokeColor=none;fillColor=none;spacing=5;spacingTop=-20;whiteSpace=wrap;overflow=hidden;rounded=0;fontFamily=monserat;fontSource=https%3A%2F%2Ffonts.googleapis.com%2Fcss%3Ffamily%3Dmonserat;fontSize=17;align=center;" parent="c7NxjLTY1limqeC1YHB--1" vertex="1">
                    <mxGeometry x="10" y="960" width="986" height="370" as="geometry"/>
                </mxCell>
                <mxCell id="bn6GsZn3lirkr-gELbS7-48" value="" style="shape=image;html=1;verticalAlign=top;verticalLabelPosition=bottom;labelBackgroundColor=#ffffff;imageAspect=0;aspect=fixed;image=https://cdn0.iconfinder.com/data/icons/elasto-online-store/26/00-ELASTOFONT-STORE-READY_close-128.png;fontFamily=monserat;fontSource=https%3A%2F%2Ffonts.googleapis.com%2Fcss%3Ffamily%3Dmonserat;fontSize=17;fontColor=#FFFFFF;strokeColor=#2676FF;strokeWidth=1;fillColor=#2676FF;opacity=30;imageBorder=default;" parent="c7NxjLTY1limqeC1YHB--1" vertex="1">
                    <mxGeometry x="617.5" y="1090" width="275" height="275" as="geometry"/>
                </mxCell>
                <mxCell id="bn6GsZn3lirkr-gELbS7-49" value="&lt;font color=&quot;#050505&quot;&gt;Sede Comunale&lt;/font&gt;" style="text;strokeColor=none;fillColor=none;html=1;fontSize=24;fontStyle=1;verticalAlign=middle;align=center;labelBackgroundColor=none;fontFamily=monserat;fontSource=https%3A%2F%2Ffonts.googleapis.com%2Fcss%3Ffamily%3Dmonserat;fontColor=#FFFFFF;opacity=30;" parent="c7NxjLTY1limqeC1YHB--1" vertex="1">
                    <mxGeometry x="170" y="1040" width="100" height="40" as="geometry"/>
                </mxCell>
                <mxCell id="bn6GsZn3lirkr-gELbS7-51" value="&lt;font color=&quot;#050505&quot;&gt;Sede Nazionale&lt;/font&gt;" style="text;strokeColor=none;fillColor=none;html=1;fontSize=24;fontStyle=1;verticalAlign=middle;align=center;labelBackgroundColor=none;fontFamily=monserat;fontSource=https%3A%2F%2Ffonts.googleapis.com%2Fcss%3Ffamily%3Dmonserat;fontColor=#FFFFFF;opacity=30;" parent="c7NxjLTY1limqeC1YHB--1" vertex="1">
                    <mxGeometry x="699" y="1040" width="100" height="40" as="geometry"/>
                </mxCell>
                <mxCell id="bn6GsZn3lirkr-gELbS7-54" value="&lt;font color=&quot;#050505&quot; style=&quot;font-size: 30px&quot;&gt;Maps&amp;nbsp;&lt;/font&gt;" style="text;strokeColor=none;fillColor=none;html=1;fontSize=24;fontStyle=1;verticalAlign=middle;align=center;labelBackgroundColor=none;fontFamily=monserat;fontSource=https%3A%2F%2Ffonts.googleapis.com%2Fcss%3Ffamily%3Dmonserat;fontColor=#FFFFFF;opacity=30;" parent="c7NxjLTY1limqeC1YHB--1" vertex="1">
                    <mxGeometry x="655" y="1180" width="200" height="80" as="geometry"/>
                </mxCell>
                <mxCell id="bn6GsZn3lirkr-gELbS7-55" value="" style="line;strokeWidth=1;html=1;fontFamily=Comic Sans MS;fontSize=17;fontColor=#2676FF;fillColor=#4099FF;opacity=30;" parent="c7NxjLTY1limqeC1YHB--1" vertex="1">
                    <mxGeometry x="32" y="1308" width="950" height="210" as="geometry"/>
                </mxCell>
                <mxCell id="bn6GsZn3lirkr-gELbS7-57" value="&lt;h1&gt;&lt;span style=&quot;font-size: 37px&quot;&gt;&lt;font color=&quot;#2676ff&quot;&gt;Alternanza Scuola-Lavoro&lt;/font&gt;&lt;/span&gt;&lt;span style=&quot;font-size: 23px ; font-family: &amp;#34;comic sans ms&amp;#34; ; font-weight: normal&quot;&gt;&amp;nbsp;&lt;/span&gt;&lt;br&gt;&lt;/h1&gt;" style="text;html=1;strokeColor=none;fillColor=none;spacing=5;spacingTop=-20;whiteSpace=wrap;overflow=hidden;rounded=0;fontFamily=monserat;fontSource=https%3A%2F%2Ffonts.googleapis.com%2Fcss%3Ffamily%3Dmonserat;fontSize=17;align=center;" parent="c7NxjLTY1limqeC1YHB--1" vertex="1">
                    <mxGeometry x="12" y="1440" width="986" height="370" as="geometry"/>
                </mxCell>
                <mxCell id="bn6GsZn3lirkr-gELbS7-59" value="" style="shape=image;html=1;verticalAlign=top;verticalLabelPosition=bottom;labelBackgroundColor=#ffffff;imageAspect=0;aspect=fixed;image=https://cdn0.iconfinder.com/data/icons/elasto-online-store/26/00-ELASTOFONT-STORE-READY_close-128.png;fontFamily=monserat;fontSource=https%3A%2F%2Ffonts.googleapis.com%2Fcss%3Ffamily%3Dmonserat;fontSize=17;fontColor=#FFFFFF;strokeColor=#2676FF;strokeWidth=1;fillColor=#2676FF;opacity=30;imageBorder=default;" parent="c7NxjLTY1limqeC1YHB--1" vertex="1">
                    <mxGeometry x="96.5" y="1090" width="275" height="275" as="geometry"/>
                </mxCell>
                <mxCell id="bn6GsZn3lirkr-gELbS7-60" value="&lt;font color=&quot;#050505&quot; style=&quot;font-size: 30px&quot;&gt;Maps&amp;nbsp;&lt;/font&gt;" style="text;strokeColor=none;fillColor=none;html=1;fontSize=24;fontStyle=1;verticalAlign=middle;align=center;labelBackgroundColor=none;fontFamily=monserat;fontSource=https%3A%2F%2Ffonts.googleapis.com%2Fcss%3Ffamily%3Dmonserat;fontColor=#FFFFFF;opacity=30;" parent="c7NxjLTY1limqeC1YHB--1" vertex="1">
                    <mxGeometry x="134" y="1180" width="200" height="80" as="geometry"/>
                </mxCell>
                <mxCell id="bn6GsZn3lirkr-gELbS7-61" value="" style="rounded=0;whiteSpace=wrap;html=1;labelBackgroundColor=none;fontFamily=monserat;fontSource=https%3A%2F%2Ffonts.googleapis.com%2Fcss%3Ffamily%3Dmonserat;fontSize=30;fontColor=#050505;strokeColor=#2676FF;strokeWidth=1;fillColor=none;opacity=30;" parent="c7NxjLTY1limqeC1YHB--1" vertex="1">
                    <mxGeometry x="148" y="1508" width="710" height="280" as="geometry"/>
                </mxCell>
                <mxCell id="bn6GsZn3lirkr-gELbS7-65" value="" style="html=1;shadow=0;dashed=0;align=center;verticalAlign=middle;shape=mxgraph.arrows2.arrow;dy=0.66;dx=41.71;notch=0;labelBackgroundColor=none;fontFamily=monserat;fontSource=https%3A%2F%2Ffonts.googleapis.com%2Fcss%3Ffamily%3Dmonserat;fontSize=30;fontColor=#050505;strokeColor=#2676FF;strokeWidth=1;fillColor=none;opacity=30;" parent="c7NxjLTY1limqeC1YHB--1" vertex="1">
                    <mxGeometry x="783" y="1630" width="75" height="53" as="geometry"/>
                </mxCell>
                <mxCell id="bn6GsZn3lirkr-gELbS7-66" value="" style="html=1;shadow=0;dashed=0;align=center;verticalAlign=middle;shape=mxgraph.arrows2.arrow;dy=0.66;dx=44;flipH=1;notch=0;labelBackgroundColor=none;fontFamily=monserat;fontSource=https%3A%2F%2Ffonts.googleapis.com%2Fcss%3Ffamily%3Dmonserat;fontSize=30;fontColor=#050505;strokeColor=#2676FF;strokeWidth=1;fillColor=none;opacity=30;" parent="c7NxjLTY1limqeC1YHB--1" vertex="1">
                    <mxGeometry x="148" y="1630" width="70" height="53" as="geometry"/>
                </mxCell>
                <mxCell id="bn6GsZn3lirkr-gELbS7-67" value="&lt;font style=&quot;font-size: 26px&quot;&gt;image&lt;/font&gt;" style="text;strokeColor=none;fillColor=none;html=1;fontSize=24;fontStyle=1;verticalAlign=middle;align=center;labelBackgroundColor=none;fontFamily=monserat;fontSource=https%3A%2F%2Ffonts.googleapis.com%2Fcss%3Ffamily%3Dmonserat;fontColor=#050505;opacity=30;" parent="c7NxjLTY1limqeC1YHB--1" vertex="1">
                    <mxGeometry x="440" y="1628" width="100" height="40" as="geometry"/>
                </mxCell>
                <mxCell id="bn6GsZn3lirkr-gELbS7-74" value="" style="line;strokeWidth=1;html=1;fontFamily=Comic Sans MS;fontSize=17;fontColor=#2676FF;fillColor=#4099FF;opacity=30;" parent="c7NxjLTY1limqeC1YHB--1" vertex="1">
                    <mxGeometry x="32" y="1730" width="950" height="210" as="geometry"/>
                </mxCell>
                <mxCell id="bn6GsZn3lirkr-gELbS7-81" value="Social" style="text;strokeColor=none;fillColor=none;html=1;fontSize=28;fontStyle=1;verticalAlign=middle;align=center;labelBackgroundColor=none;fontFamily=monserat;fontSource=https%3A%2F%2Ffonts.googleapis.com%2Fcss%3Ffamily%3Dmonserat;fontColor=#050505;opacity=30;" parent="c7NxjLTY1limqeC1YHB--1" vertex="1">
                    <mxGeometry x="81" y="1870" width="100" height="40" as="geometry"/>
                </mxCell>
                <mxCell id="bn6GsZn3lirkr-gELbS7-82" value="Facebook&lt;br&gt;Instagram&lt;br&gt;Twitter" style="text;html=1;strokeColor=none;fillColor=none;align=left;verticalAlign=middle;whiteSpace=wrap;rounded=0;labelBackgroundColor=none;fontFamily=monserat;fontSource=https%3A%2F%2Ffonts.googleapis.com%2Fcss%3Ffamily%3Dmonserat;fontSize=26;fontColor=#050505;opacity=30;" parent="c7NxjLTY1limqeC1YHB--1" vertex="1">
                    <mxGeometry x="81" y="1940" width="129" height="30" as="geometry"/>
                </mxCell>
                <mxCell id="bn6GsZn3lirkr-gELbS7-84" value="Assistenza" style="text;strokeColor=none;fillColor=none;html=1;fontSize=25;fontStyle=1;verticalAlign=middle;align=left;labelBackgroundColor=none;fontFamily=monserat;fontSource=https%3A%2F%2Ffonts.googleapis.com%2Fcss%3Ffamily%3Dmonserat;fontColor=#050505;opacity=30;" parent="c7NxjLTY1limqeC1YHB--1" vertex="1">
                    <mxGeometry x="443" y="1870" width="100" height="40" as="geometry"/>
                </mxCell>
                <mxCell id="bn6GsZn3lirkr-gELbS7-83" value="Avis nazionale&lt;br&gt;aiuto" style="text;html=1;strokeColor=none;fillColor=none;align=center;verticalAlign=middle;whiteSpace=wrap;rounded=0;labelBackgroundColor=none;fontFamily=monserat;fontSource=https%3A%2F%2Ffonts.googleapis.com%2Fcss%3Ffamily%3Dmonserat;fontSize=26;fontColor=#050505;opacity=30;" parent="c7NxjLTY1limqeC1YHB--1" vertex="1">
                    <mxGeometry x="450" y="1905" width="100" height="100" as="geometry"/>
                </mxCell>
                <mxCell id="bn6GsZn3lirkr-gELbS7-87" value="Info legali" style="text;strokeColor=none;fillColor=none;html=1;fontSize=24;fontStyle=1;verticalAlign=middle;align=center;labelBackgroundColor=none;fontFamily=monserat;fontSource=https%3A%2F%2Ffonts.googleapis.com%2Fcss%3Ffamily%3Dmonserat;fontColor=#050505;opacity=30;" parent="c7NxjLTY1limqeC1YHB--1" vertex="1">
                    <mxGeometry x="780.5" y="1865" width="100" height="40" as="geometry"/>
                </mxCell>
                <mxCell id="bn6GsZn3lirkr-gELbS7-88" value="Termini&lt;br&gt;servizi&amp;nbsp;&lt;br&gt;cookie" style="text;html=1;strokeColor=none;fillColor=none;align=center;verticalAlign=middle;whiteSpace=wrap;rounded=0;labelBackgroundColor=none;fontFamily=monserat;fontSource=https%3A%2F%2Ffonts.googleapis.com%2Fcss%3Ffamily%3Dmonserat;fontSize=28;fontColor=#050505;opacity=30;" parent="c7NxjLTY1limqeC1YHB--1" vertex="1">
                    <mxGeometry x="793.5" y="1915" width="67.5" height="80" as="geometry"/>
                </mxCell>
                <mxCell id="bn6GsZn3lirkr-gELbS7-90" value="News&amp;nbsp;&lt;span style=&quot;text-align: left&quot;&gt;&lt;font style=&quot;font-size: 24px&quot;&gt;&amp;amp; media&lt;/font&gt;&lt;/span&gt;" style="text;strokeColor=none;fillColor=none;html=1;fontSize=24;fontStyle=1;verticalAlign=middle;align=center;labelBackgroundColor=none;fontFamily=monserat;fontSource=https%3A%2F%2Ffonts.googleapis.com%2Fcss%3Ffamily%3Dmonserat;fontColor=#050505;opacity=30;" parent="c7NxjLTY1limqeC1YHB--1" vertex="1">
                    <mxGeometry x="1061" y="202" width="100" height="40" as="geometry"/>
                </mxCell>
                <mxCell id="bn6GsZn3lirkr-gELbS7-93" value="&lt;font style=&quot;font-size: 12px&quot;&gt;**/**/2022&lt;/font&gt;" style="text;html=1;strokeColor=none;fillColor=none;align=center;verticalAlign=middle;whiteSpace=wrap;rounded=0;labelBackgroundColor=none;fontFamily=monserat;fontSource=https%3A%2F%2Ffonts.googleapis.com%2Fcss%3Ffamily%3Dmonserat;fontSize=28;fontColor=#050505;opacity=30;" parent="c7NxjLTY1limqeC1YHB--1" vertex="1">
                    <mxGeometry x="1020" y="440" width="104" height="10" as="geometry"/>
                </mxCell>
                <mxCell id="bn6GsZn3lirkr-gELbS7-94" value="" style="shape=image;html=1;verticalAlign=top;verticalLabelPosition=bottom;labelBackgroundColor=#ffffff;imageAspect=0;aspect=fixed;image=https://cdn0.iconfinder.com/data/icons/elasto-online-store/26/00-ELASTOFONT-STORE-READY_close-128.png;fontFamily=monserat;fontSource=https%3A%2F%2Ffonts.googleapis.com%2Fcss%3Ffamily%3Dmonserat;fontSize=17;fontColor=#FFFFFF;strokeColor=#2676FF;strokeWidth=1;fillColor=#2676FF;opacity=30;imageBorder=default;" parent="c7NxjLTY1limqeC1YHB--1" vertex="1">
                    <mxGeometry x="1026" y="264" width="170" height="170" as="geometry"/>
                </mxCell>
                <mxCell id="bn6GsZn3lirkr-gELbS7-105" value="image" style="text;html=1;strokeColor=none;fillColor=none;align=center;verticalAlign=middle;whiteSpace=wrap;rounded=0;labelBackgroundColor=none;fontFamily=monserat;fontSource=https%3A%2F%2Ffonts.googleapis.com%2Fcss%3Ffamily%3Dmonserat;fontSize=17;fontColor=#050505;opacity=30;" parent="c7NxjLTY1limqeC1YHB--1" vertex="1">
                    <mxGeometry x="1081" y="334" width="60" height="30" as="geometry"/>
                </mxCell>
                <mxCell id="Nf9pI1sO9drlmr6N_qFy-1" value="" style="shape=image;html=1;verticalAlign=top;verticalLabelPosition=bottom;labelBackgroundColor=#ffffff;imageAspect=0;aspect=fixed;image=https://cdn0.iconfinder.com/data/icons/elasto-online-store/26/00-ELASTOFONT-STORE-READY_close-128.png;fontFamily=monserat;fontSource=https%3A%2F%2Ffonts.googleapis.com%2Fcss%3Ffamily%3Dmonserat;fontSize=17;fontColor=#FFFFFF;strokeColor=#2676FF;strokeWidth=1;fillColor=#2676FF;opacity=30;imageBorder=default;" parent="c7NxjLTY1limqeC1YHB--1" vertex="1">
                    <mxGeometry x="1026" y="692" width="170" height="170" as="geometry"/>
                </mxCell>
                <mxCell id="Nf9pI1sO9drlmr6N_qFy-2" value="&lt;h1&gt;&lt;br&gt;&lt;/h1&gt;&lt;p&gt;&lt;font style=&quot;font-size: 17px&quot;&gt;Lorem ipsum dolor sit amet, consectetur adipisicing elit, sed do eiusmod tempor incididunt.&lt;/font&gt;&lt;/p&gt;" style="text;html=1;strokeColor=none;fillColor=none;spacing=5;spacingTop=-20;whiteSpace=wrap;overflow=hidden;rounded=0;labelBackgroundColor=none;fontFamily=monserat;fontSource=https%3A%2F%2Ffonts.googleapis.com%2Fcss%3Ffamily%3Dmonserat;fontSize=20;fontColor=#050505;opacity=30;align=left;" parent="c7NxjLTY1limqeC1YHB--1" vertex="1">
                    <mxGeometry x="1009" y="798" width="204" height="240" as="geometry"/>
                </mxCell>
                <mxCell id="Nf9pI1sO9drlmr6N_qFy-3" value="image" style="text;html=1;strokeColor=none;fillColor=none;align=center;verticalAlign=middle;whiteSpace=wrap;rounded=0;labelBackgroundColor=none;fontFamily=monserat;fontSource=https%3A%2F%2Ffonts.googleapis.com%2Fcss%3Ffamily%3Dmonserat;fontSize=17;fontColor=#050505;opacity=30;" parent="c7NxjLTY1limqeC1YHB--1" vertex="1">
                    <mxGeometry x="1081" y="762" width="60" height="30" as="geometry"/>
                </mxCell>
                <mxCell id="Nf9pI1sO9drlmr6N_qFy-4" value="**/**/2022" style="text;html=1;strokeColor=none;fillColor=none;align=center;verticalAlign=middle;whiteSpace=wrap;rounded=0;" parent="c7NxjLTY1limqeC1YHB--1" vertex="1">
                    <mxGeometry x="1026" y="857" width="60" height="30" as="geometry"/>
                </mxCell>
                <mxCell id="bn6GsZn3lirkr-gELbS7-104" value="&lt;h1&gt;&lt;br&gt;&lt;/h1&gt;&lt;p&gt;&lt;font style=&quot;font-size: 17px&quot;&gt;Lorem ipsum dolor sit amet, consectetur adipisicing elit, sed do eiusmod tempor incididunt.&lt;/font&gt;&lt;/p&gt;" style="text;html=1;strokeColor=none;fillColor=none;spacing=5;spacingTop=-20;whiteSpace=wrap;overflow=hidden;rounded=0;labelBackgroundColor=none;fontFamily=monserat;fontSource=https%3A%2F%2Ffonts.googleapis.com%2Fcss%3Ffamily%3Dmonserat;fontSize=20;fontColor=#050505;opacity=30;align=left;" parent="c7NxjLTY1limqeC1YHB--1" vertex="1">
                    <mxGeometry x="1020" y="370" width="204" height="200" as="geometry"/>
                </mxCell>
                <mxCell id="Nf9pI1sO9drlmr6N_qFy-5" value="" style="shape=image;html=1;verticalAlign=top;verticalLabelPosition=bottom;labelBackgroundColor=#ffffff;imageAspect=0;aspect=fixed;image=https://cdn0.iconfinder.com/data/icons/elasto-online-store/26/00-ELASTOFONT-STORE-READY_close-128.png;fontFamily=monserat;fontSource=https%3A%2F%2Ffonts.googleapis.com%2Fcss%3Ffamily%3Dmonserat;fontSize=17;fontColor=#FFFFFF;strokeColor=#2676FF;strokeWidth=1;fillColor=#2676FF;opacity=30;imageBorder=default;" parent="c7NxjLTY1limqeC1YHB--1" vertex="1">
                    <mxGeometry x="1026" y="1140" width="170" height="170" as="geometry"/>
                </mxCell>
                <mxCell id="Nf9pI1sO9drlmr6N_qFy-6" value="&lt;h1&gt;&lt;br&gt;&lt;/h1&gt;&lt;p&gt;&lt;font style=&quot;font-size: 17px&quot;&gt;Lorem ipsum dolor sit amet, consectetur adipisicing elit, sed do eiusmod tempor incididunt.&lt;/font&gt;&lt;/p&gt;" style="text;html=1;strokeColor=none;fillColor=none;spacing=5;spacingTop=-20;whiteSpace=wrap;overflow=hidden;rounded=0;labelBackgroundColor=none;fontFamily=monserat;fontSource=https%3A%2F%2Ffonts.googleapis.com%2Fcss%3Ffamily%3Dmonserat;fontSize=20;fontColor=#050505;opacity=30;align=left;" parent="c7NxjLTY1limqeC1YHB--1" vertex="1">
                    <mxGeometry x="1009" y="1246" width="204" height="240" as="geometry"/>
                </mxCell>
                <mxCell id="Nf9pI1sO9drlmr6N_qFy-7" value="image" style="text;html=1;strokeColor=none;fillColor=none;align=center;verticalAlign=middle;whiteSpace=wrap;rounded=0;labelBackgroundColor=none;fontFamily=monserat;fontSource=https%3A%2F%2Ffonts.googleapis.com%2Fcss%3Ffamily%3Dmonserat;fontSize=17;fontColor=#050505;opacity=30;" parent="c7NxjLTY1limqeC1YHB--1" vertex="1">
                    <mxGeometry x="1081" y="1210" width="60" height="30" as="geometry"/>
                </mxCell>
                <mxCell id="Nf9pI1sO9drlmr6N_qFy-8" value="**/**/2022" style="text;html=1;strokeColor=none;fillColor=none;align=center;verticalAlign=middle;whiteSpace=wrap;rounded=0;" parent="c7NxjLTY1limqeC1YHB--1" vertex="1">
                    <mxGeometry x="1026" y="1305" width="60" height="30" as="geometry"/>
                </mxCell>
                <mxCell id="Nf9pI1sO9drlmr6N_qFy-9" value="" style="shape=image;html=1;verticalAlign=top;verticalLabelPosition=bottom;labelBackgroundColor=#ffffff;imageAspect=0;aspect=fixed;image=https://cdn0.iconfinder.com/data/icons/elasto-online-store/26/00-ELASTOFONT-STORE-READY_close-128.png;fontFamily=monserat;fontSource=https%3A%2F%2Ffonts.googleapis.com%2Fcss%3Ffamily%3Dmonserat;fontSize=17;fontColor=#FFFFFF;strokeColor=#2676FF;strokeWidth=1;fillColor=#2676FF;opacity=30;imageBorder=default;" parent="c7NxjLTY1limqeC1YHB--1" vertex="1">
                    <mxGeometry x="1026" y="1594" width="170" height="170" as="geometry"/>
                </mxCell>
                <mxCell id="Nf9pI1sO9drlmr6N_qFy-10" value="&lt;h1&gt;&lt;br&gt;&lt;/h1&gt;&lt;p&gt;&lt;font style=&quot;font-size: 17px&quot;&gt;Lorem ipsum dolor sit amet, consectetur adipisicing elit, sed do eiusmod tempor incididunt.&lt;/font&gt;&lt;/p&gt;" style="text;html=1;strokeColor=none;fillColor=none;spacing=5;spacingTop=-20;whiteSpace=wrap;overflow=hidden;rounded=0;labelBackgroundColor=none;fontFamily=monserat;fontSource=https%3A%2F%2Ffonts.googleapis.com%2Fcss%3Ffamily%3Dmonserat;fontSize=20;fontColor=#050505;opacity=30;align=left;" parent="c7NxjLTY1limqeC1YHB--1" vertex="1">
                    <mxGeometry x="1009" y="1700" width="204" height="240" as="geometry"/>
                </mxCell>
                <mxCell id="Nf9pI1sO9drlmr6N_qFy-11" value="image" style="text;html=1;strokeColor=none;fillColor=none;align=center;verticalAlign=middle;whiteSpace=wrap;rounded=0;labelBackgroundColor=none;fontFamily=monserat;fontSource=https%3A%2F%2Ffonts.googleapis.com%2Fcss%3Ffamily%3Dmonserat;fontSize=17;fontColor=#050505;opacity=30;" parent="c7NxjLTY1limqeC1YHB--1" vertex="1">
                    <mxGeometry x="1081" y="1664" width="60" height="30" as="geometry"/>
                </mxCell>
                <mxCell id="Nf9pI1sO9drlmr6N_qFy-12" value="**/**/2022" style="text;html=1;strokeColor=none;fillColor=none;align=center;verticalAlign=middle;whiteSpace=wrap;rounded=0;" parent="c7NxjLTY1limqeC1YHB--1" vertex="1">
                    <mxGeometry x="1026" y="1759" width="60" height="30" as="geometry"/>
                </mxCell>
                <mxCell id="Nf9pI1sO9drlmr6N_qFy-14" value="" style="shape=image;html=1;verticalAlign=top;verticalLabelPosition=bottom;labelBackgroundColor=#ffffff;imageAspect=0;aspect=fixed;image=https://cdn3.iconfinder.com/data/icons/2018-social-media-logotypes/1000/2018_social_media_popular_app_logo_facebook-128.png;fontSize=12;" parent="c7NxjLTY1limqeC1YHB--1" vertex="1">
                    <mxGeometry x="188" y="1916" width="21" height="21" as="geometry"/>
                </mxCell>
                <mxCell id="Nf9pI1sO9drlmr6N_qFy-15" value="" style="shape=image;html=1;verticalAlign=top;verticalLabelPosition=bottom;labelBackgroundColor=#ffffff;imageAspect=0;aspect=fixed;image=https://cdn3.iconfinder.com/data/icons/2018-social-media-logotypes/1000/2018_social_media_popular_app_logo_instagram-128.png;fontSize=12;" parent="c7NxjLTY1limqeC1YHB--1" vertex="1">
                    <mxGeometry x="190" y="1949" width="21" height="21" as="geometry"/>
                </mxCell>
                <mxCell id="Nf9pI1sO9drlmr6N_qFy-16" value="" style="shape=image;html=1;verticalAlign=top;verticalLabelPosition=bottom;labelBackgroundColor=#ffffff;imageAspect=0;aspect=fixed;image=https://cdn3.iconfinder.com/data/icons/free-social-icons/67/twitter_circle_color-128.png;fontSize=12;" parent="c7NxjLTY1limqeC1YHB--1" vertex="1">
                    <mxGeometry x="165" y="1979" width="21" height="21" as="geometry"/>
                </mxCell>
                <mxCell id="Nf9pI1sO9drlmr6N_qFy-17" value="" style="ellipse;whiteSpace=wrap;html=1;aspect=fixed;fontSize=28;fillColor=#FF3333;strokeColor=none;" parent="c7NxjLTY1limqeC1YHB--1" vertex="1">
                    <mxGeometry x="1162" y="3" width="24" height="24" as="geometry"/>
                </mxCell>
                <mxCell id="Nf9pI1sO9drlmr6N_qFy-19" value="" style="ellipse;whiteSpace=wrap;html=1;aspect=fixed;fontSize=28;fillColor=#66FF66;strokeColor=none;" parent="c7NxjLTY1limqeC1YHB--1" vertex="1">
                    <mxGeometry x="1214" y="3" width="24" height="24" as="geometry"/>
                </mxCell>
                <mxCell id="Nf9pI1sO9drlmr6N_qFy-18" value="" style="ellipse;whiteSpace=wrap;html=1;aspect=fixed;fontSize=28;fillColor=#FFD966;strokeColor=none;" parent="c7NxjLTY1limqeC1YHB--1" vertex="1">
                    <mxGeometry x="1188" y="3" width="24" height="24" as="geometry"/>
                </mxCell>
                <mxCell id="t-yqxCgvgsPSMpnyVoJh-2" value="" style="rounded=0;whiteSpace=wrap;html=1;fillColor=none;strokeWidth=5;strokeColor=#FF0B03;opacity=60;" parent="c7NxjLTY1limqeC1YHB--1" vertex="1">
                    <mxGeometry y="110" width="1240" height="80" as="geometry"/>
                </mxCell>
                <mxCell id="t-yqxCgvgsPSMpnyVoJh-3" value="" style="rounded=0;whiteSpace=wrap;html=1;fillColor=none;strokeWidth=5;strokeColor=#FF0B03;opacity=60;" parent="c7NxjLTY1limqeC1YHB--1" vertex="1">
                    <mxGeometry x="32" y="240" width="1240" height="1630" as="geometry"/>
                </mxCell>
                <mxCell id="t-yqxCgvgsPSMpnyVoJh-4" value="" style="rounded=0;whiteSpace=wrap;html=1;fillColor=none;strokeWidth=5;strokeColor=#FF0B03;opacity=60;" parent="c7NxjLTY1limqeC1YHB--1" vertex="1">
                    <mxGeometry y="1840" width="1240" height="190" as="geometry"/>
                </mxCell>
                <mxCell id="t-yqxCgvgsPSMpnyVoJh-6" value="" style="rounded=0;whiteSpace=wrap;html=1;fillColor=none;strokeWidth=5;strokeColor=#FF0B03;opacity=60;" parent="c7NxjLTY1limqeC1YHB--1" vertex="1">
                    <mxGeometry x="1010" y="210" width="214" height="1610" as="geometry"/>
                </mxCell>
                <mxCell id="t-yqxCgvgsPSMpnyVoJh-5" value="" style="rounded=0;whiteSpace=wrap;html=1;fillColor=none;strokeWidth=5;strokeColor=#FF0B03;opacity=60;" parent="c7NxjLTY1limqeC1YHB--1" vertex="1">
                    <mxGeometry x="340.5" y="385" width="980" height="1610" as="geometry"/>
                </mxCell>
                <mxCell id="Nf9pI1sO9drlmr6N_qFy-20" value="&lt;font style=&quot;font-size: 1px&quot;&gt;design by rick-juj&lt;/font&gt;" style="text;html=1;strokeColor=none;fillColor=none;align=center;verticalAlign=middle;whiteSpace=wrap;rounded=0;fontSize=28;" parent="t-yqxCgvgsPSMpnyVoJh-1" vertex="1">
                    <mxGeometry x="1177" y="2005" width="88" height="30" as="geometry"/>
                </mxCell>
                <mxCell id="t-yqxCgvgsPSMpnyVoJh-9" style="edgeStyle=orthogonalEdgeStyle;rounded=0;orthogonalLoop=1;jettySize=auto;html=1;exitX=1;exitY=0.5;exitDx=0;exitDy=0;entryX=0;entryY=0.5;entryDx=0;entryDy=0;fontSize=41;" parent="1" source="t-yqxCgvgsPSMpnyVoJh-7" target="t-yqxCgvgsPSMpnyVoJh-2" edge="1">
                    <mxGeometry relative="1" as="geometry"/>
                </mxCell>
                <mxCell id="t-yqxCgvgsPSMpnyVoJh-7" value="header" style="text;html=1;strokeColor=none;fillColor=none;align=center;verticalAlign=middle;whiteSpace=wrap;rounded=0;opacity=60;fontSize=41;" parent="1" vertex="1">
                    <mxGeometry x="-1410" y="-1630" width="140" height="50" as="geometry"/>
                </mxCell>
                <mxCell id="t-yqxCgvgsPSMpnyVoJh-12" style="edgeStyle=orthogonalEdgeStyle;rounded=0;orthogonalLoop=1;jettySize=auto;html=1;entryX=-0.004;entryY=0.112;entryDx=0;entryDy=0;entryPerimeter=0;fontSize=41;" parent="1" source="t-yqxCgvgsPSMpnyVoJh-10" target="t-yqxCgvgsPSMpnyVoJh-3" edge="1">
                    <mxGeometry relative="1" as="geometry"/>
                </mxCell>
                <mxCell id="t-yqxCgvgsPSMpnyVoJh-10" value="main" style="text;html=1;strokeColor=none;fillColor=none;align=center;verticalAlign=middle;whiteSpace=wrap;rounded=0;fontSize=41;opacity=60;" parent="1" vertex="1">
                    <mxGeometry x="-1470" y="-1410" width="100" height="30" as="geometry"/>
                </mxCell>
                <mxCell id="t-yqxCgvgsPSMpnyVoJh-15" style="edgeStyle=orthogonalEdgeStyle;rounded=0;orthogonalLoop=1;jettySize=auto;html=1;entryX=0;entryY=0.5;entryDx=0;entryDy=0;fontSize=41;" parent="1" source="t-yqxCgvgsPSMpnyVoJh-14" target="t-yqxCgvgsPSMpnyVoJh-4" edge="1">
                    <mxGeometry relative="1" as="geometry"/>
                </mxCell>
                <mxCell id="t-yqxCgvgsPSMpnyVoJh-14" value="footer" style="text;html=1;strokeColor=none;fillColor=none;align=center;verticalAlign=middle;whiteSpace=wrap;rounded=0;fontSize=41;opacity=60;" parent="1" vertex="1">
                    <mxGeometry x="-1540" y="170" width="110" height="30" as="geometry"/>
                </mxCell>
                <mxCell id="t-yqxCgvgsPSMpnyVoJh-17" style="edgeStyle=orthogonalEdgeStyle;rounded=0;orthogonalLoop=1;jettySize=auto;html=1;entryX=-0.005;entryY=0.187;entryDx=0;entryDy=0;entryPerimeter=0;fontSize=41;" parent="1" source="t-yqxCgvgsPSMpnyVoJh-16" target="t-yqxCgvgsPSMpnyVoJh-5" edge="1">
                    <mxGeometry relative="1" as="geometry"/>
                </mxCell>
                <mxCell id="t-yqxCgvgsPSMpnyVoJh-16" value="section" style="text;html=1;strokeColor=none;fillColor=none;align=center;verticalAlign=middle;whiteSpace=wrap;rounded=0;fontSize=41;opacity=60;" parent="1" vertex="1">
                    <mxGeometry x="-1510" y="-1200" width="140" height="30" as="geometry"/>
                </mxCell>
                <mxCell id="t-yqxCgvgsPSMpnyVoJh-19" style="edgeStyle=orthogonalEdgeStyle;rounded=0;orthogonalLoop=1;jettySize=auto;html=1;entryX=1.005;entryY=0.112;entryDx=0;entryDy=0;entryPerimeter=0;fontSize=41;" parent="1" source="t-yqxCgvgsPSMpnyVoJh-18" target="t-yqxCgvgsPSMpnyVoJh-6" edge="1">
                    <mxGeometry relative="1" as="geometry"/>
                </mxCell>
                <mxCell id="t-yqxCgvgsPSMpnyVoJh-18" value="aside" style="text;html=1;strokeColor=none;fillColor=none;align=center;verticalAlign=middle;whiteSpace=wrap;rounded=0;fontSize=41;opacity=60;" parent="1" vertex="1">
                    <mxGeometry x="180" y="-1330" width="170" height="30" as="geometry"/>
                </mxCell>
                <mxCell id="t-yqxCgvgsPSMpnyVoJh-93" value="" style="rounded=0;whiteSpace=wrap;html=1;fillColor=none;strokeWidth=5;strokeColor=#FF0B03;opacity=60;" parent="1" vertex="1">
                    <mxGeometry x="-1190" y="-1570" width="80" height="60" as="geometry"/>
                </mxCell>
                <mxCell id="t-yqxCgvgsPSMpnyVoJh-95" style="edgeStyle=orthogonalEdgeStyle;rounded=0;orthogonalLoop=1;jettySize=auto;html=1;entryX=0.5;entryY=0;entryDx=0;entryDy=0;fontSize=41;" parent="1" source="t-yqxCgvgsPSMpnyVoJh-94" target="t-yqxCgvgsPSMpnyVoJh-93" edge="1">
                    <mxGeometry relative="1" as="geometry"/>
                </mxCell>
                <mxCell id="t-yqxCgvgsPSMpnyVoJh-94" value="img#logo" style="text;html=1;strokeColor=none;fillColor=none;align=center;verticalAlign=middle;whiteSpace=wrap;rounded=0;fontSize=41;opacity=60;" parent="1" vertex="1">
                    <mxGeometry x="-900" y="-1780" width="210" height="30" as="geometry"/>
                </mxCell>
            </root>
        </mxGraphModel>
    </diagram>
</mxfile>